<!-- icon666.com - MILLIONS vector ICONS FREE --><svg id="Capa_1" enable-background="new 0 0 512 512" viewBox="0 0 512 512" xmlns="http://www.w3.org/2000/svg"><g><circle cx="256" cy="256" fill="#5ab267" r="256"></circle><path d="m512 256c0 141.5-114.52 256-256 256v-512c141.5 0 256 114.52 256 256z" fill="#009653"></path><circle cx="256" cy="256" fill="#fff5f5" r="226"></circle><path d="m482 256c0 124.62-101.38 226-226 226v-452c124.62 0 226 101.38 226 226z" fill="#ece6f2"></path><path d="m439.086 243.751c-3.458-1.228-85.322-29.652-140.163 7.958-20.995 14.398-34.382 35.975-42.923 57.332-8.541-21.356-21.928-42.934-42.923-57.332-54.843-37.61-136.704-9.186-140.163-7.958-6.123 2.176-10.149 8.046-9.973 14.542.1 3.668 3.073 90.273 57.918 127.885 37.477 25.701 92.436 22.626 135.14 9.589 42.791 13.065 97.713 16.08 135.141-9.589 54.845-37.611 57.818-124.216 57.918-127.885.177-6.495-3.849-12.366-9.972-14.542z" fill="#8cd96b"></path><path d="m449.06 258.29c-.1 3.67-3.07 90.28-57.92 127.89-37.43 25.67-92.35 22.65-135.14 9.59v-86.73c8.54-21.36 21.93-42.93 42.92-57.33 54.84-37.61 136.71-9.19 140.17-7.96 6.12 2.18 10.15 8.05 9.97 14.54z" fill="#5ab267"></path><path d="m263.887 78.531c-4.702-3.417-11.072-3.417-15.774 0-3.21 2.332-78.599 57.927-78.599 129.427s75.389 127.095 78.599 129.427c4.702 3.417 11.072 3.417 15.774 0 3.21-2.332 78.599-57.927 78.599-129.427s-75.389-127.096-78.599-129.427z" fill="#acef43"></path><path d="m342.49 207.96c0 71.5-75.39 127.09-78.6 129.42-2.35 1.71-5.12 2.56-7.89 2.56v-263.98c2.77 0 5.54.86 7.89 2.57 3.21 2.33 78.6 57.93 78.6 129.43z" fill="#8cd96b"></path><path d="m355.787 311.567c-4.685-6.831-14.021-8.571-20.854-3.887l-63.933 43.846v-125.611c0-8.284-6.716-15-15-15s-15 6.716-15 15v125.611l-63.934-43.846c-6.83-4.684-16.169-2.943-20.854 3.887-4.686 6.832-2.945 16.169 3.887 20.854l80.9 55.482v33.129c0 8.284 6.716 15 15 15s15-6.716 15-15v-33.129l80.9-55.482c6.833-4.685 8.574-14.022 3.888-20.854z" fill="#5ab267"></path><path d="m351.9 332.42-80.9 55.48v33.13c0 8.29-6.72 15-15 15v-225.11c8.28 0 15 6.71 15 15v125.61l63.93-43.85c6.84-4.68 16.17-2.94 20.86 3.89 4.68 6.83 2.94 16.17-3.89 20.85z" fill="#009653"></path></g></svg>